<?xml version="1.0" standalone="no"?>
<!DOCTYPE svg PUBLIC "-//W3C//DTD SVG 20010904//EN"
 "http://www.w3.org/TR/2001/REC-SVG-20010904/DTD/svg10.dtd">
<svg version="1.0" xmlns="http://www.w3.org/2000/svg"
 width="732.000000pt" height="732.000000pt" viewBox="0 0 732.000000 732.000000"
 preserveAspectRatio="xMidYMid meet">
<metadata>
Created by potrace 1.11, written by Peter Selinger 2001-2013
</metadata>
<g transform="translate(0.000000,732.000000) scale(0.100000,-0.100000)"
fill="#000000" stroke="none">
<path d="M2429 6946 c-2 -2 -38 -7 -79 -10 -156 -15 -415 -77 -557 -135 -373
-150 -700 -441 -844 -749 -35 -76 -87 -229 -95 -282 -3 -19 -8 -38 -10 -41 -6
-10 -18 -179 -18 -254 0 -222 57 -412 177 -590 111 -164 367 -421 685 -685 33
-28 52 -50 49 -60 -18 -57 -57 -211 -62 -240 -17 -104 -26 -162 -32 -225 -9
-95 -9 -343 1 -435 8 -76 47 -284 66 -353 l11 -38 60 58 c33 32 102 98 152
146 51 49 165 159 255 245 89 86 162 160 162 164 0 4 -16 42 -35 83 -41 88
-52 114 -70 172 l-13 43 87 -74 c170 -146 328 -322 426 -474 432 -671 90
-1407 -705 -1519 -86 -12 -397 -8 -480 6 -361 63 -609 237 -754 528 -54 108
-89 218 -122 380 -4 21 -29 7 -322 -169 -174 -105 -323 -197 -330 -203 -28
-26 82 -243 196 -387 203 -255 539 -418 942 -456 95 -9 432 -9 525 0 139 14
210 23 245 33 8 2 31 6 50 9 19 3 50 10 68 15 18 5 35 10 37 10 55 5 318 98
428 151 500 239 850 635 952 1075 120 520 -29 962 -470 1393 -60 59 -130 124
-155 144 -140 117 -331 274 -423 348 -58 47 -106 90 -106 97 -1 20 98 144 168
211 117 111 282 210 467 281 58 22 221 67 274 76 19 3 42 8 50 10 18 5 103 17
215 30 22 3 129 8 239 11 l198 6 -6 -38 c-3 -22 -8 -66 -11 -99 -4 -33 -8 -76
-10 -95 -10 -83 -18 -157 -30 -267 -3 -27 -7 -66 -10 -88 -2 -22 -7 -62 -10
-90 -3 -27 -8 -66 -10 -85 -3 -19 -7 -60 -10 -90 -6 -61 -15 -142 -20 -180 -2
-14 -6 -55 -10 -92 -3 -37 -7 -75 -9 -85 -2 -10 -7 -49 -10 -88 -4 -38 -9 -81
-11 -95 -3 -25 -10 -86 -21 -195 -3 -33 -7 -71 -9 -85 -2 -14 -7 -52 -10 -85
-4 -33 -8 -76 -11 -95 -2 -19 -6 -60 -9 -90 -3 -30 -8 -66 -10 -80 -2 -14 -7
-56 -11 -95 -3 -38 -8 -77 -9 -86 -2 -9 -6 -52 -10 -95 -3 -43 -8 -86 -10 -94
-2 -8 -6 -44 -10 -80 -3 -36 -8 -76 -10 -90 -2 -14 -7 -54 -10 -90 -4 -36 -8
-76 -10 -90 -2 -14 -6 -54 -10 -90 -3 -36 -8 -76 -10 -90 -3 -14 -7 -54 -10
-90 -4 -36 -8 -76 -10 -90 -2 -14 -7 -50 -10 -80 -28 -240 -94 -514 -166 -679
-36 -83 -91 -185 -137 -254 -54 -81 -168 -200 -234 -245 -50 -35 -46 -34 -203
-17 -22 2 -66 7 -97 10 -32 3 -83 7 -113 11 l-55 5 -93 -89 c-139 -134 -275
-263 -347 -331 -59 -55 -63 -61 -40 -61 14 -1 54 -3 90 -5 57 -3 158 -7 475
-20 237 -10 378 -16 450 -20 44 -3 150 -7 235 -10 85 -3 198 -8 250 -10 52 -3
147 -7 211 -10 l116 -5 232 226 c127 125 229 229 227 231 -2 2 -44 6 -92 8
-49 2 -145 7 -214 10 -69 3 -165 8 -215 10 -49 2 -155 7 -235 11 -80 3 -167 8
-195 9 -27 2 -65 4 -83 4 -28 1 -19 8 75 57 60 31 139 76 176 100 37 24 70 44
72 44 11 0 135 100 198 159 135 127 240 336 293 581 4 19 9 40 10 45 8 37 44
259 49 300 2 28 7 68 10 90 6 44 14 114 20 185 4 43 13 118 20 170 5 34 17
162 18 179 0 11 68 12 411 6 576 -11 894 -11 941 -1 203 42 447 209 680 467
50 55 53 63 19 55 -15 -4 -44 -9 -64 -12 -19 -2 -42 -6 -50 -9 -8 -2 -39 -7
-69 -10 -30 -4 -62 -8 -71 -10 -9 -2 -41 -6 -71 -10 -30 -3 -71 -8 -91 -10
-21 -3 -55 -7 -75 -10 -21 -2 -76 -7 -123 -11 -47 -3 -101 -8 -120 -11 -19 -2
-313 -7 -654 -10 l-618 -5 6 28 c3 16 8 60 12 97 3 37 7 76 9 85 1 9 6 51 10
92 3 41 8 82 10 90 2 8 7 49 10 90 3 41 8 82 10 90 2 8 7 49 10 90 4 41 8 86
10 100 6 41 18 148 30 260 3 30 8 71 10 90 2 19 7 58 10 85 2 28 7 68 9 90 3
22 8 67 11 100 3 33 8 76 10 95 5 35 10 82 20 170 2 25 7 65 10 90 3 25 8 68
10 95 3 28 8 66 10 85 2 19 7 64 11 99 l6 64 582 -7 c319 -3 604 -8 631 -10
28 -2 104 -7 170 -10 332 -18 488 -66 563 -173 57 -82 69 -182 41 -360 -11
-65 -20 -127 -22 -138 -2 -18 4 -20 53 -19 133 2 196 83 333 429 100 252 269
689 277 718 l9 27 -82 -5 c-127 -8 -216 -13 -360 -20 -73 -4 -172 -9 -222 -11
-49 -3 -468 -7 -930 -10 -1033 -5 -1500 -11 -1585 -18 -127 -11 -206 -20 -280
-31 -106 -16 -170 -27 -234 -41 -39 -9 -81 -17 -93 -20 -65 -13 -283 -82 -381
-120 -303 -120 -538 -278 -790 -531 l-124 -124 -66 57 c-156 132 -354 321
-456 435 -153 171 -243 385 -240 574 3 237 63 396 199 531 99 98 236 164 419
200 114 22 410 27 536 8 92 -14 224 -45 265 -63 211 -92 317 -167 387 -276 80
-122 90 -243 39 -440 -17 -65 -31 -119 -31 -121 0 -1 20 -10 43 -19 108 -41
193 22 266 195 13 30 39 89 58 130 19 41 53 118 75 170 22 52 48 113 58 135
55 122 130 298 130 304 0 9 -155 86 -247 122 -139 55 -329 111 -448 133 -51
10 -148 26 -190 32 -44 6 -481 15 -486 10z"/>
</g>
</svg>
